Coordinates
version=1
nRows=19
nColumns=24
inDegrees=yes

Units are S.I. units (second, meters, Newtons, ...)
Angles are in degrees.

endheader
time	pelvis_tilt	pelvis_list	pelvis_rotation	pelvis_tx	pelvis_ty	pelvis_tz	hip_flexion_r	hip_adduction_r	hip_rotation_r	knee_angle_r	ankle_angle_r	subtalar_angle_r	mtp_angle_r	hip_flexion_l	hip_adduction_l	hip_rotation_l	knee_angle_l	ankle_angle_l	subtalar_angle_l	mtp_angle_l	lumbar_extension	lumbar_bending	lumbar_rotation
      0.52100000	     -1.09050774	     -0.23009342	      3.68232176	     -0.77329980	      1.04327561	      0.28930448	     26.88104962	     -0.82003576	     -4.21651862	     -1.38276292	      5.14340705	     -9.70661688	      6.77268122	    -18.93834871	      0.29476344	      3.13014546	     -3.92589136	     16.65704750	      9.50330595	      7.98053800	     -8.68550005	      1.85089802	     -4.75262957
      0.52516667	     -1.05339718	     -0.23723258	      3.78076795	     -0.76739677	      1.04260102	      0.28969301	     26.70602363	     -0.78899030	     -3.88993537	     -1.63492812	      4.95780376	    -10.05860612	      6.76673030	    -19.13334046	      0.20112458	      3.13032961	     -4.29712248	     16.64743275	      9.64817737	      8.03756704	     -8.71238928	      1.95201624	     -4.76454333
      0.52933333	     -1.05642872	     -0.26788628	      3.89872647	     -0.76138768	      1.04191146	      0.29001705	     26.57258092	     -0.74838163	     -3.74136893	     -1.91215736	      4.78738889	    -10.20141364	      6.76932711	    -19.26077792	      0.07793546	      3.08292805	     -4.72671707	     16.63504482	      9.88415513	      8.12703469	     -8.65014430	      2.10926346	     -4.83701451
      0.53350000	     -1.06524493	     -0.27439416	      4.00144253	     -0.75536114	      1.04124930	      0.29039670	     26.43635407	     -0.72237022	     -3.57237762	     -2.18146960	      4.60757830	    -10.33960438	      6.80114520	    -19.34814223	     -0.02021972	      2.93857178	     -5.22243082	     16.61288497	     10.24182881	      8.41196127	     -8.58652490	      2.20956555	     -4.87519572
      0.53766667	     -1.01271400	     -0.31490460	      4.11228399	     -0.74928397	      1.04073368	      0.29074741	     26.21049440	     -0.66038923	     -3.47378795	     -2.41493266	      4.38572983	    -10.47045236	      6.82053157	    -19.52270104	     -0.15837749	      2.89664534	     -5.67272258	     16.53454281	     10.42389028	      8.56506902	     -8.59583940	      2.39093225	     -4.96669356
      0.54183333	     -1.03060722	     -0.33223255	      4.21706170	     -0.74316829	      1.04017372	      0.29111779	     26.07588201	     -0.62505662	     -3.46056207	     -2.68944652	      4.13994549	    -10.48068035	      6.82241886	    -19.61218193	     -0.26249140	      2.93422582	     -6.14161499	     16.37189035	     10.46814195	      8.60023478	     -8.53354941	      2.50944901	     -4.96005084
      0.54600000	     -0.98919886	     -0.40386865	      4.33085070	     -0.73698334	      1.03973891	      0.29148409	     25.81723076	     -0.52680133	     -3.36191528	     -2.84085782	      3.69861251	    -10.81936132	      6.86391200	    -19.71311413	     -0.44574661	      2.71316378	     -6.72333857	     16.34999467	     10.95094009	      8.87267267	     -8.48895292	      2.74419609	     -5.12784435
      0.55016667	     -1.04040971	     -0.44912376	      4.43275629	     -0.73076421	      1.03921236	      0.29188223	     25.69880024	     -0.46172131	     -3.39185692	     -3.08241454	      3.30461421	    -10.92207032	      7.14691430	    -19.68231540	     -0.59247469	      2.48727886	     -7.35979384	     16.25328947	     11.42724616	     10.34407788	     -8.35205477	      2.88237733	     -5.02765103
      0.55433333	     -0.96809918	     -0.52641967	      4.54061695	     -0.72454307	      1.03897652	      0.29223420	     25.40917175	     -0.35869564	     -3.42727277	     -3.24130859	      2.82423705	    -11.04966810	      7.15980231	    -19.83207576	     -0.77039517	      2.50622952	     -7.88965543	     16.02665959	     11.49186719	     10.46681800	     -8.37986008	      3.14118115	     -5.15681987
      0.55850000	     -0.93838816	     -0.59123160	      4.61652586	     -0.71832127	      1.03869946	      0.29269707	     25.18129146	     -0.25262777	     -3.40406057	     -3.42443513	      2.24980733	    -11.36691000	      7.21048777	    -19.86665463	     -0.93639690	      2.29153147	     -8.56405811	     15.84868413	     11.85400580	     10.81696436	     -8.34831473	      3.33671466	     -5.26242127
      0.56266667	     -0.97814552	     -0.68605887	      4.70992852	     -0.71200181	      1.03838228	      0.29310547	     25.04160494	     -0.13672258	     -3.52845135	     -3.64772471	      1.74237973	    -11.49333558	      7.48700315	    -19.78950802	     -1.13805269	      2.05137526	     -9.31010976	     15.64575071	     12.27854016	     12.50072834	     -8.20495301	      3.53812665	     -5.13206475
      0.56683333	     -0.89294510	     -0.78949492	      4.78482145	     -0.70574696	      1.03834541	      0.29353633	     24.75608956	      0.00608316	     -3.59505268	     -3.83353614	      1.12748526	    -11.71116205	      7.50108210	    -19.88153425	     -1.33845258	      1.99432646	     -9.97438871	     15.34268505	     12.35082073	     12.70169846	     -8.24668506	      3.83089590	     -5.32810203
      0.57100000	     -0.89563828	     -0.90541328	      4.85118381	     -0.69943668	      1.03822301	      0.29399453	     24.58380455	      0.15494049	     -3.67811807	     -4.06033044	      0.50330078	    -11.93577524	      7.52778811	    -19.80650702	     -1.55503234	      1.77473725	    -10.78675880	     15.08322509	     12.69370391	     13.03483091	     -8.16304145	      4.10008389	     -5.33550344
      0.57516667	     -0.86457622	     -1.01506285	      4.91091901	     -0.69312689	      1.03823804	      0.29442246	     24.40694010	      0.29110535	     -3.88279478	     -4.35653512	     -0.03954019	    -11.93125090	      7.52602886	    -19.78961065	     -1.74974061	      1.72388018	    -11.54117856	     14.68163988	     12.72315787	     13.12306001	     -8.10007050	      4.34901649	     -5.28763882
      0.57933333	     -0.81765108	     -1.17147658	      4.95973018	     -0.68685593	      1.03830073	      0.29493302	     24.20914062	      0.48715506	     -3.97309163	     -4.63412855	     -0.63794038	    -12.15144872	      7.86185539	    -19.68798727	     -2.02237353	      1.37578943	    -12.49260869	     14.33763205	     13.19741122	     16.90227429	     -8.10581766	      4.66674570	     -5.28461138
      0.58350000	     -0.81408896	     -1.32826838	      4.99117661	     -0.68052216	      1.03837727	      0.29543767	     24.08157280	      0.67918250	     -4.08786280	     -4.97169635	     -1.19272827	    -12.30856312	      7.84979209	    -19.55209882	     -2.27036836	      1.16976930	    -13.42057866	     13.94642127	     13.39599826	     16.98307584	     -8.01327911	      4.99357008	     -5.28901989
      0.58766667	     -0.78928917	     -1.50120857	      5.01009101	     -0.67422463	      1.03854094	      0.29596756	     23.95867206	      0.88851855	     -4.22953026	     -5.36361408	     -1.70206006	    -12.38544107	      7.83933595	    -19.39801369	     -2.54040522	      0.90364231	    -14.42126743	     13.53248889	     13.69252251	     17.14343125	     -7.96966849	      5.33306279	     -5.24378115
      0.59183333	     -0.76032529	     -1.66907429	      4.99748223	     -0.66795916	      1.03875589	      0.29655688	     23.86714673	      1.10014209	     -4.35614789	     -5.83085531	     -2.16501534	    -12.43180568	      7.82801024	    -19.22506446	     -2.79897758	      0.60901660	    -15.46108476	     13.05657850	     14.00297498	     17.41838986	     -7.94325425	      5.67082032	     -5.18740952
      0.59600000	     -0.75260607	     -1.85583121	      4.98180089	     -0.66168921	      1.03899126	      0.29713973	     23.81676927	      1.32367608	     -4.49773246	     -6.34305018	     -2.55897100	    -12.42966465	      7.81365428	    -18.98890302	     -3.07684845	      0.31488406	    -16.57800534	     12.54660155	     14.28000378	     17.79410885	     -7.88265592	      6.02601490	     -5.11792999
